<svg width="20" height="20" viewBox="0 0 20 20" fill="none" xmlns="http://www.w3.org/2000/svg">
<g clip-path="url(#clip0)">
<path d="M19.453 8.8152C19.3881 8.4089 19.0062 8.13211 18.5999 8.19693C18.1936 8.26175 17.9168 8.64369 17.9816 9.04999C17.9823 9.05445 17.9831 9.05885 17.9839 9.06326C18.7425 13.5292 15.7372 17.7645 11.2713 18.5231C6.80534 19.2818 2.57003 16.2764 1.81139 11.8105C1.05275 7.34462 4.05812 3.10931 8.52399 2.35066C11.2704 1.88413 14.0659 2.84347 15.9471 4.89814L12.6469 5.9977C12.2565 6.1276 12.0454 6.54935 12.1753 6.93976C12.1753 6.93985 12.1753 6.93998 12.1754 6.94006C12.3053 7.33047 12.727 7.54161 13.1175 7.41175C13.1176 7.41171 13.1177 7.41166 13.1178 7.41166L17.5876 5.92174C17.8919 5.82039 18.0972 5.53557 18.0971 5.21478V0.744981C18.0971 0.333533 17.7636 0 17.3522 0C16.9407 0 16.6072 0.333533 16.6072 0.744981V3.46632C12.7707 -0.182677 6.70242 -0.0306424 3.05342 3.80588C-0.595579 7.6424 -0.443588 13.7106 3.39298 17.3597C7.22954 21.0087 13.2977 20.8567 16.9468 17.0201C19.0275 14.8324 19.9562 11.7922 19.453 8.8152Z" fill="white"/>
</g>
<defs>
<clipPath id="clip0">
<rect width="20" height="20" fill="white"/>
</clipPath>
</defs>
</svg>
